<?xml version="1.0" encoding="utf-8"?>
<!-- Generator: Adobe Illustrator 17.0.0, SVG Export Plug-In . SVG Version: 6.00 Build 0)  -->
<!DOCTYPE svg PUBLIC "-//W3C//DTD SVG 1.1//EN" "http://www.w3.org/Graphics/SVG/1.1/DTD/svg11.dtd">
<svg version="1.1" id="Layer_1" xmlns="http://www.w3.org/2000/svg" xmlns:xlink="http://www.w3.org/1999/xlink" x="0px" y="0px"
	 width="100px" height="100px" viewBox="0 0 100 100" enable-background="new 0 0 100 100" xml:space="preserve">

	<!-- <circle fill="#FFFFFF" cx="50" cy="50" r="50"/> -->
	<circle fill="none" stroke="#2360AD" stroke-miterlimit="10" stroke-dasharray="12" cx="50" cy="50" r="48.02">

	<animateTransform attributeName="transform"
	attributeType ="XML"
	type="rotate"
	from="0 50 50 "
	to= "360 50 50"
	dur="10s"
	repeatCount="indefinite" />
</circle	>
<circle fill="#2360AD" cx="50" cy="50" r="39.113"/>
<path fill="#FFFFFF" d="M27.5,60c0,1.381-1.119,2.5-2.5,2.5l0,0c-1.381,0-2.5-1.119-2.5-2.5V40c0-1.381,1.119-2.5,2.5-2.5l0,0
	c1.381,0,2.5,1.119,2.5,2.5V60z">
	<animateTransform id = "anskljdf"
	attributeName="transform"
	attributeType="XMl"
	type="translate"
	begin=".1"
	dur="1s"
	values="0,6;0, -6;0,6"
	repeatCount="indefinite"/>
	</path>
<path fill="#FFFFFF" d="M40,60c0,1.381-1.119,2.5-2.5,2.5l0,0c-1.381,0-2.5-1.119-2.5-2.5V40c0-1.381,1.119-2.5,2.5-2.5l0,0
	c1.381,0,2.5,1.119,2.5,2.5V60z">
<animateTransform id = "anskljdf"
	attributeName="transform"
	attributeType="XMl"
	type="translate"
	begin=".2"
	dur="1s"
	values="0,6;0, -6;0,6"
	repeatCount="indefinite"/>
	</path>
	
<path fill="#FFFFFF" d="M52.5,60c0,1.381-1.119,2.5-2.5,2.5l0,0c-1.381,0-2.5-1.119-2.5-2.5V40c0-1.381,1.119-2.5,2.5-2.5l0,0
	c1.381,0,2.5,1.119,2.5,2.5V60z">
<animateTransform id = "anskljdf"
	attributeName="transform"
	attributeType="XMl"
	type="translate"
	begin=".3"
	dur="1s"
	values="0,6;0, -6;0,6"
	repeatCount="indefinite"/>
	</path>
	
<path fill="#FFFFFF" d="M63.5,60c0,1.381-1.119,2.5-2.5,2.5l0,0c-1.381,0-2.5-1.119-2.5-2.5V40c0-1.381,1.119-2.5,2.5-2.5l0,0
	c1.381,0,2.5,1.119,2.5,2.5V60z">
<animateTransform id = "anskljdf"
	attributeName="transform"
	attributeType="XMl"
	type="translate"
	begin=".4"
	dur="1s"
	values="0,6;0, -6;0,6"
	repeatCount="indefinite"/>
</path>	
<path fill="#FFFFFF" d="M75.5,60c0,1.381-1.119,2.5-2.5,2.5l0,0c-1.381,0-2.5-1.119-2.5-2.5V40c0-1.381,1.119-2.5,2.5-2.5l0,0
	c1.381,0,2.5,1.119,2.5,2.5V60z">
	<animateTransform id = "anskljdf"
	attributeName="transform"
	attributeType="XMl"
	type="translate"
	begin=".5"
	dur="1s"
	values="0,6;0, -6;0,6"
	repeatCount="indefinite"/>
	</path>
	
</svg>
